<svg xmlns="http://www.w3.org/2000/svg" width="24" height="24" viewBox="0 0 24 24" fill="none" class="injected-svg" role="img" color="white">
  <path fill-rule="evenodd" clip-rule="evenodd" d="M11.75 15C11.75 14.0335 12.5335 13.25 13.5 13.25H15.5C15.9142 13.25 16.25 13.5858 16.25 14C16.25 14.4142 15.9142 14.75 15.5 14.75H13.5C13.3619 14.75 13.25 14.8619 13.25 15V15.5C13.25 15.6381 13.3619 15.75 13.5 15.75H14.5C15.4665 15.75 16.25 16.5335 16.25 17.5V18C16.25 18.9665 15.4665 19.75 14.5 19.75H12.5C12.0858 19.75 11.75 19.4142 11.75 19C11.75 18.5858 12.0858 18.25 12.5 18.25H14.5C14.6381 18.25 14.75 18.1381 14.75 18V17.5C14.75 17.3619 14.6381 17.25 14.5 17.25H13.5C12.5335 17.25 11.75 16.4665 11.75 15.5V15Z" fill="currentColor" stroke="white" stroke-opacity="0.3"></path>
  <path fill-rule="evenodd" clip-rule="evenodd" d="M17.25 15C17.25 14.0335 18.0335 13.25 19 13.25H21C21.4142 13.25 21.75 13.5858 21.75 14C21.75 14.4142 21.4142 14.75 21 14.75H19C18.8619 14.75 18.75 14.8619 18.75 15V15.5C18.75 15.6381 18.8619 15.75 19 15.75H20C20.9665 15.75 21.75 16.5335 21.75 17.5V18C21.75 18.9665 20.9665 19.75 20 19.75H18C17.5858 19.75 17.25 19.4142 17.25 19C17.25 18.5858 17.5858 18.25 18 18.25H20C20.1381 18.25 20.25 18.1381 20.25 18V17.5C20.25 17.3619 20.1381 17.25 20 17.25H19C18.0335 17.25 17.25 16.4665 17.25 15.5V15Z" fill="currentColor" stroke="white" stroke-opacity="0.3"></path>
  <path opacity="0.4" d="M10.5874 1.2501C11.1574 1.24934 11.6619 1.24866 12.1373 1.41733C12.2353 1.45209 12.3314 1.49208 12.4251 1.53715C12.8799 1.75582 13.2362 2.11489 13.6387 2.52054L18.4215 7.32819C18.8889 7.79654 19.3036 8.2122 19.5277 8.75596C19.7518 9.29971 19.7509 9.88846 19.7499 10.5518L19.7498 12L8.15103 12C7.49496 12 6.22622 12.0203 5.33769 12.9649C4.87932 13.4522 4.68716 14.0106 4.59843 14.4498C4.51359 14.8698 4.5 15.3019 4.5 15.6667V17.3333C4.5 17.6981 4.51359 18.1303 4.59843 18.5502C4.68716 18.9894 4.87932 19.5478 5.33769 20.0351C6.22625 20.9797 7.49517 21 8.15122 21L18.6104 21C18.5229 21.1097 18.4282 21.216 18.326 21.3188C17.5457 22.1031 16.5633 22.4405 15.3965 22.5982C14.2727 22.75 12.8438 22.75 11.071 22.75C9.29819 22.75 7.72705 22.75 6.60322 22.5982C5.43643 22.4405 4.45402 22.1031 3.67377 21.3188C2.89352 20.5345 2.55792 19.547 2.40105 18.3741C2.24996 17.2445 2.24998 15.8082 2.25 14.0262V9.45261C2.24998 7.91897 2.24997 6.68239 2.36424 5.69856C2.48248 4.6806 2.73418 3.80839 3.32681 3.06954C3.54435 2.79833 3.79012 2.55128 4.05992 2.33261C4.79495 1.7369 5.66265 1.48389 6.67534 1.36504C7.6541 1.25017 9.0617 1.25008 10.5874 1.2501Z" fill="currentColor"></path>
  <path d="M12.1373 1.41795C12.2353 1.45271 12.3314 1.49271 12.4251 1.53777C12.8799 1.75644 13.2362 2.11551 13.6387 2.52116L18.4215 7.32881L18.4215 7.32882C18.8889 7.79717 19.3036 8.21283 19.5277 8.75658C19.6265 8.99631 19.6816 9.24478 19.7122 9.50453H17.7314C16.3638 9.50455 15.7152 9.50377 14.8483 9.38721C13.9481 9.26619 13.1903 9.0073 12.5884 8.40538C11.9864 7.80346 11.7275 7.04559 11.6065 6.14548C11.4902 5.2803 11.4902 4.63259 11.4902 3.27075V1.2793C11.7136 1.30237 11.9283 1.34379 12.1373 1.41795Z" fill="white"></path>
</svg>

